<svg width="30" height="30" viewBox="0 0 30 30" fill="none" xmlns="http://www.w3.org/2000/svg">
<path d="M25.12 6.946C22.696 4.998 18.863 4.668 18.701 4.654C18.445 4.632 18.202 4.777 18.097 5.011C18.093 5.019 17.879 5.64 17.672 6.239C20.489 6.732 22.403 7.826 22.505 7.886C22.983 8.164 23.143 8.777 22.864 9.254C22.679 9.572 22.344 9.75 22 9.75C21.829 9.75 21.657 9.707 21.499 9.615C21.471 9.598 18.663 8 15.002 8C11.34 8 8.531 9.599 8.503 9.615C8.026 9.892 7.414 9.729 7.137 9.251C6.86 8.775 7.021 8.164 7.497 7.886C7.599 7.826 9.52 6.728 12.345 6.236C12.127 5.63 11.907 5.019 11.903 5.011C11.798 4.776 11.555 4.628 11.299 4.654C11.137 4.667 7.304 4.997 4.848 6.972C3.564 8.158 1 15.092 1 21.087C1 21.193 1.027 21.296 1.08 21.388C2.851 24.498 7.679 25.312 8.779 25.347C8.786 25.348 8.792 25.348 8.798 25.348C8.992 25.348 9.175 25.255 9.29 25.098L10.48 23.486C7.87 22.857 6.49 21.868 6.407 21.807C5.963 21.48 5.867 20.854 6.194 20.409C6.52 19.966 7.144 19.868 7.588 20.193C7.625 20.217 10.172 22 15 22C19.847 22 22.387 20.21 22.412 20.192C22.856 19.87 23.482 19.967 23.807 20.413C24.131 20.857 24.037 21.479 23.595 21.805C23.512 21.866 22.139 22.853 19.535 23.482L20.71 25.097C20.825 25.255 21.008 25.347 21.202 25.347C21.209 25.347 21.215 25.347 21.221 25.346C22.322 25.311 27.15 24.497 28.92 21.387C28.973 21.295 29 21.192 29 21.086C29 15.092 26.436 8.158 25.12 6.946ZM11 19C9.895 19 9 17.881 9 16.5C9 15.119 9.895 14 11 14C12.105 14 13 15.119 13 16.5C13 17.881 12.105 19 11 19ZM19 19C17.895 19 17 17.881 17 16.5C17 15.119 17.895 14 19 14C20.105 14 21 15.119 21 16.5C21 17.881 20.105 19 19 19Z" fill="white"/>
</svg>
