<svg width="51" height="50" viewBox="0 0 51 50" fill="none" xmlns="http://www.w3.org/2000/svg">
<g clip-path="url(#clip0_1_7)">
<path fill-rule="evenodd" clip-rule="evenodd" d="M42.3037 12.2452C42.1732 12.2452 42.0407 12.2154 41.9161 12.1522C41.4896 11.9363 41.3178 11.413 41.5322 10.9833C41.9313 10.1834 42.5004 8.62482 41.8257 7.17283C41.2248 5.87955 39.7621 4.95144 37.4784 4.414C36.7659 4.24634 36.0819 3.77407 35.3579 3.27407C33.9432 2.29696 32.4799 1.28688 30.512 2.02967C30.0625 2.1992 29.5926 2.3625 29.1382 2.52046C28.9153 2.59795 28.6909 2.67581 28.4658 2.75566C28.016 2.91512 27.5221 2.67681 27.3637 2.2232C27.2053 1.76947 27.4419 1.27245 27.8923 1.113C28.1207 1.03216 28.3483 0.952927 28.5742 0.874444C29.0387 0.713002 29.4772 0.560638 29.9054 0.398947C32.7157 -0.66175 34.8081 0.783027 36.3355 1.83788C36.9218 2.24273 37.4755 2.62519 37.8717 2.71835C40.6975 3.38328 42.5547 4.63365 43.3915 6.43465C44.3756 8.55256 43.6168 10.6837 43.0768 11.7655C42.9249 12.0696 42.6202 12.2452 42.3037 12.2452Z" fill="white"/>
<path fill-rule="evenodd" clip-rule="evenodd" d="M14.0775 48.5265C11.0177 48.5265 7.6857 47.2844 4.91355 44.8392C-0.30216 40.2386 -1.58926 33.0956 2.04458 28.9159C3.081 27.7239 4.33476 26.9148 5.87748 26.4427C6.33438 26.3029 6.81709 26.5626 6.95589 27.0227C7.09469 27.4829 6.83685 27.9691 6.38007 28.1089C5.15533 28.4836 4.16262 29.1229 3.34514 30.0631C0.339353 33.5204 1.55384 39.5612 6.05259 43.5291C10.5512 47.4974 16.6566 47.9126 19.6624 44.4555C20.1229 43.9257 20.4939 43.323 20.7648 42.6645C20.9476 42.2203 21.4531 42.0092 21.8943 42.1934C22.3353 42.3775 22.5446 42.8868 22.362 43.3311C22.0187 44.1655 21.5481 44.9296 20.9631 45.6025C19.2606 47.5607 16.7747 48.5265 14.0775 48.5265Z" fill="white"/>
<path fill-rule="evenodd" clip-rule="evenodd" d="M23.0344 43.7426C22.194 43.7426 21.3419 43.6716 20.4912 43.5278C17.5903 43.0377 15.0476 41.7427 13.3315 39.881C13.0066 39.5288 13.0269 38.9778 13.3767 38.6507C13.7264 38.3236 14.2735 38.344 14.5984 38.6963C17.5755 41.9255 23.4837 42.976 27.7685 41.0386C28.204 40.8415 28.7156 41.0377 28.9111 41.4762C29.1067 41.915 28.9121 42.4301 28.4765 42.627C26.847 43.364 24.9735 43.7426 23.0344 43.7426Z" fill="white"/>
<path fill-rule="evenodd" clip-rule="evenodd" d="M43.4629 17.2751C43.3733 17.2751 43.2823 17.2611 43.1927 17.2312C42.7392 17.081 42.4925 16.5889 42.6417 16.1322C43.0171 14.9827 42.6408 13.5848 41.6092 12.297C40.4965 10.9075 38.8403 9.86294 37.3902 9.6357C36.9186 9.56182 36.5956 9.11667 36.6689 8.64154C36.7424 8.16641 37.1843 7.84154 37.656 7.91505C39.9029 8.26716 41.8664 9.84465 42.9548 11.2037C44.3616 12.9602 44.846 14.9549 44.2838 16.6764C44.1643 17.0427 43.826 17.2751 43.4629 17.2751Z" fill="white"/>
<path fill-rule="evenodd" clip-rule="evenodd" d="M12.2017 32.952C10.3568 32.952 8.30086 32.1941 6.81507 30.2687C4.39226 27.1289 4.21555 23.3464 6.34248 20.1504C6.60822 19.7509 7.14527 19.6441 7.54178 19.912C7.93842 20.1798 8.04437 20.7206 7.77851 21.12C6.08699 23.6616 6.23702 26.6823 8.18009 29.2C9.70218 31.1724 12.1646 31.562 13.8106 30.9279C14.4442 30.6836 15.9032 29.9023 15.765 27.9278C15.7315 27.4482 16.0904 27.032 16.5667 26.9982C17.041 26.9635 17.4561 27.3259 17.4896 27.8055C17.6417 29.9814 16.4974 31.7566 14.4285 32.5541C13.7695 32.8081 13.0056 32.952 12.2017 32.952Z" fill="white"/>
<path fill-rule="evenodd" clip-rule="evenodd" d="M14.7046 28.8838C13.2035 28.8838 11.5473 28.3603 10.0006 27.0621C7.77067 25.1905 6.42689 22.4999 6.40614 19.865C6.38799 17.5808 7.36032 15.5223 9.21781 13.912C9.57975 13.5984 10.1253 13.6396 10.4369 14.004C10.7483 14.3685 10.7074 14.9182 10.3456 15.2319C8.88551 16.4977 8.121 18.095 8.13483 19.8512C8.1515 21.9489 9.29042 24.1994 11.1074 25.7246C12.6201 26.9943 15.1287 27.7669 17.0613 26.4627C18.257 25.6559 18.6779 24.3445 18.2162 22.8645C18.0729 22.4058 18.3262 21.9171 18.7816 21.7729C19.2369 21.6288 19.7222 21.8838 19.8655 22.3425C20.5528 24.5458 19.8472 26.6788 18.0235 27.9094C17.136 28.5081 15.976 28.8838 14.7046 28.8838Z" fill="white"/>
<path fill-rule="evenodd" clip-rule="evenodd" d="M16.5411 23.7597C15.6873 23.7597 14.8633 23.5887 14.1509 23.2299C10.6017 21.4426 9.2177 18.0357 9.10582 15.4432C9.03136 13.7186 10.0107 10.2475 12.9561 8.27565C13.3536 8.00948 13.8902 8.11844 14.1544 8.51881C14.4187 8.91931 14.3107 9.45973 13.9132 9.72578C11.7094 11.2011 10.7723 13.9645 10.8329 15.3676C10.8641 16.0922 11.2084 19.8013 14.9239 21.6724C16.4166 22.4243 18.8405 21.8994 20.2172 20.5266C21.0743 19.6718 21.8593 18.1638 20.7315 15.8342C20.5222 15.402 20.7005 14.8809 21.1295 14.6701C21.5586 14.4592 22.076 14.6387 22.2853 15.0711C23.4979 17.5754 23.1874 20.015 21.4335 21.7641C20.1465 23.0475 18.2825 23.7597 16.5411 23.7597Z" fill="white"/>
<path fill-rule="evenodd" clip-rule="evenodd" d="M20.6348 16.1184C18.5768 16.1184 16.5762 15.4271 14.9572 14.1023C13.5078 12.9161 12.2953 10.1633 12.9028 7.39791C13.6829 3.84804 16.9795 2.51122 18.8751 2.03038C19.66 1.83125 20.3686 1.58622 21.0536 1.34928C23.1943 0.608984 25.2163 -0.0902699 28.0546 1.33162C29.1491 1.87988 30.3226 2.16234 31.4576 2.43535C34.2059 3.09667 37.0479 3.78062 37.7131 8.22067C37.7843 8.69617 37.4594 9.1397 36.9873 9.21147C36.5163 9.28286 36.0748 8.956 36.0036 8.4805C35.5124 5.20139 33.7395 4.77478 31.0559 4.12901C29.8838 3.84704 28.5557 3.52752 27.2848 2.8907C25.0936 1.79306 23.6344 2.29779 21.6149 2.99617C20.8961 3.2448 20.1529 3.50189 19.2973 3.71893C16.654 4.38946 15.0264 5.79182 14.5909 7.77416C14.1555 9.7555 15.008 11.9001 16.0474 12.7508C17.9809 14.3331 20.5978 14.7943 23.0481 13.9845C25.6449 13.1261 27.5637 10.9705 28.3124 8.0703C28.4324 7.605 28.9044 7.32615 29.3664 7.44679C29.8284 7.56769 30.1055 8.04306 29.9855 8.50848C29.086 11.9933 26.7538 14.5923 23.587 15.639C22.6137 15.9606 21.6175 16.1184 20.6348 16.1184Z" fill="white"/>
<path fill-rule="evenodd" clip-rule="evenodd" d="M45.6466 25.6366C45.5636 25.6366 45.4792 25.6244 45.3958 25.5989C44.9389 25.4597 44.6805 24.9736 44.819 24.5134C45.6029 21.9056 45.1379 19.4858 43.5436 17.8744C41.3664 15.6739 37.4683 15.2096 32.8494 16.6006C32.3916 16.7384 31.9105 16.4766 31.7736 16.0158C31.6369 15.5552 31.8968 15.07 32.3542 14.9324C37.6024 13.3519 42.1273 13.9761 44.7682 16.6453C46.8262 18.7253 47.4477 21.777 46.4734 25.0179C46.3604 25.394 46.0175 25.6366 45.6466 25.6366Z" fill="white"/>
<path fill-rule="evenodd" clip-rule="evenodd" d="M47.0488 32.5002C46.9904 32.5002 46.9313 32.4942 46.8718 32.4819C46.4044 32.3839 46.1045 31.9228 46.2017 31.4521C46.7802 28.6505 46.1279 26.234 44.4119 24.8227C42.1596 22.9701 38.4407 22.9594 34.2088 24.7932C33.7708 24.983 33.262 24.7793 33.0732 24.3376C32.8845 23.8959 33.087 23.3838 33.5255 23.1937C38.3703 21.0945 42.7365 21.1965 45.5054 23.474C47.738 25.3103 48.6087 28.3473 47.8943 31.8068C47.8093 32.2177 47.4497 32.5002 47.0488 32.5002Z" fill="white"/>
<path fill-rule="evenodd" clip-rule="evenodd" d="M42.4642 31.3582C40.2817 31.3582 37.8374 32.0137 35.5301 33.3555C32.9745 34.8414 30.9829 36.9338 29.9222 39.2471C28.9083 41.458 28.8781 43.5969 29.8372 45.27C31.8768 48.8281 37.7491 49.273 42.928 46.2614C48.1066 43.25 50.6604 37.9052 48.6208 34.3469C47.49 32.3741 45.1801 31.3582 42.4642 31.3582ZM36.0213 49.992C35.644 49.992 35.2705 49.9754 34.9014 49.9414C31.9182 49.6675 29.588 48.3177 28.3399 46.1407C27.0921 43.9636 27.0967 41.2561 28.3528 38.5169C29.562 35.8801 31.8039 33.5116 34.6657 31.8474C37.5273 30.1833 40.6849 29.4117 43.5567 29.6756C46.5399 29.9495 48.8701 31.2991 50.118 33.4762C51.366 35.6534 51.3614 38.3608 50.1053 41.1C48.8961 43.7367 46.6542 46.1054 43.7924 47.7695C41.2985 49.2198 38.5796 49.992 36.0213 49.992Z" fill="white"/>
<path fill-rule="evenodd" clip-rule="evenodd" d="M34.6518 45.4924C34.3529 45.4924 34.0625 45.3363 33.9023 45.0569C33.3111 44.0253 33.4795 42.6895 34.3767 41.2954C35.1612 40.0762 36.4431 38.9107 37.9862 38.0133C41.4586 35.9942 44.9398 35.9767 46.0843 37.9729C46.323 38.3893 46.1812 38.9218 45.7679 39.1622C45.3544 39.4023 44.8258 39.2601 44.587 38.8435C44.1099 38.0112 41.6966 37.8663 38.8506 39.5214C37.5587 40.2726 36.4568 41.2644 35.8274 42.2424C35.3166 43.036 35.1567 43.7628 35.3996 44.1863C35.6382 44.6027 35.4965 45.1351 35.0831 45.3757C34.947 45.4547 34.7984 45.4924 34.6518 45.4924Z" fill="white"/>
<path fill-rule="evenodd" clip-rule="evenodd" d="M27.9085 12.2146C27.6807 12.2146 27.4534 12.1245 27.2836 11.9457C26.9538 11.5983 26.9659 11.0471 27.3108 10.7147C28.9807 9.10598 31.5432 7.99715 34.1654 7.74851C37.0703 7.47264 39.7371 8.23297 41.6743 9.88832C42.0382 10.1994 42.0829 10.7489 41.774 11.1156C41.4651 11.482 40.9198 11.5272 40.5556 11.2161C38.9768 9.8668 36.7643 9.25113 34.3274 9.4821C32.0798 9.69528 29.9036 10.6264 28.5059 11.9731C28.3383 12.1343 28.1232 12.2146 27.9085 12.2146Z" fill="white"/>
</g>
<defs>
<clipPath id="clip0_1_7">
<rect width="51" height="50" fill="white"/>
</clipPath>
</defs>
</svg>
