<?xml version="1.0" standalone="no"?>
<!DOCTYPE svg PUBLIC "-//W3C//DTD SVG 20010904//EN"
 "http://www.w3.org/TR/2001/REC-SVG-20010904/DTD/svg10.dtd">
<svg version="1.0" xmlns="http://www.w3.org/2000/svg"
 width="688.000000pt" height="688.000000pt" viewBox="0 0 688.000000 688.000000"
 preserveAspectRatio="xMidYMid meet">
<metadata>
Created by potrace 1.14, written by Peter Selinger 2001-2017
</metadata>
<g transform="translate(0.000000,688.000000) scale(0.100000,-0.100000)"
fill="#000000" stroke="none">
<path d="M584 6866 c-179 -43 -330 -154 -415 -304 -19 -31 -31 -57 -29 -58 3
0 0 -7 -6 -15 -7 -8 -20 -41 -30 -74 -18 -58 -19 -155 -19 -2970 0 -1600 3
-2921 7 -2935 36 -138 87 -229 181 -322 59 -60 96 -87 160 -117 158 -77 -106
-71 3012 -71 2511 0 2806 2 2860 16 60 16 151 51 170 66 6 5 31 22 57 39 47
30 168 155 168 174 0 3 11 23 25 45 14 22 22 40 19 40 -4 0 -2 6 4 12 5 7 18
40 28 73 18 58 19 155 19 2970 0 1601 -3 2922 -7 2937 -4 15 -9 32 -13 38 -4
6 -9 22 -11 37 -10 52 -82 172 -141 236 -61 65 -241 175 -264 161 -5 -3 -9 -1
-9 4 0 5 -6 9 -12 9 -7 1 -35 6 -63 12 -78 16 -5623 13 -5691 -3z"/>
</g>
</svg>
